<?xml version="1.0" standalone="no"?>
<!DOCTYPE svg PUBLIC "-//W3C//DTD SVG 20010904//EN"
 "http://www.w3.org/TR/2001/REC-SVG-20010904/DTD/svg10.dtd">
<svg version="1.0" xmlns="http://www.w3.org/2000/svg"
 width="512.000000pt" height="512.000000pt" viewBox="0 0 512.000000 512.000000"
 preserveAspectRatio="xMidYMid meet">

<g transform="translate(0.000000,512.000000) scale(0.100000,-0.100000)"
fill="#000000" stroke="none">
<path d="M2370 5113 c-371 -35 -653 -114 -961 -269 -406 -203 -782 -548 -1029
-944 -179 -286 -309 -655 -362 -1025 -17 -118 -17 -512 0 -630 42 -295 120
-553 242 -800 137 -280 272 -468 494 -691 221 -220 412 -357 681 -489 188 -92
309 -137 500 -185 500 -126 1002 -102 1490 71 150 53 408 183 540 271 302 202
573 480 769 788 72 113 188 353 235 486 235 662 194 1372 -115 1993 -124 250
-263 447 -458 648 -214 222 -430 379 -711 518 -296 146 -572 225 -900 255
-102 9 -333 11 -415 3z m545 -342 c628 -106 1158 -448 1511 -977 179 -267 296
-573 351 -909 24 -153 24 -497 0 -650 -108 -668 -474 -1222 -1042 -1580 -243
-153 -537 -261 -850 -312 -154 -24 -497 -24 -650 1 -657 107 -1198 456 -1557
1006 -168 257 -281 557 -335 885 -24 153 -24 497 0 650 81 497 291 912 636
1255 382 381 862 605 1401 654 108 10 418 -4 535 -23z"/>
<path d="M3620 3510 c-14 -6 -366 -351 -782 -768 l-758 -757 -282 282 c-305
304 -307 305 -395 288 -49 -9 -109 -69 -118 -118 -17 -90 -23 -83 363 -469
386 -386 378 -380 469 -363 34 6 132 100 871 838 605 605 835 841 843 866 22
67 -2 139 -63 184 -31 23 -111 32 -148 17z"/>
</g>
</svg>
